<svg width="37" height="37" viewBox="0 0 37 37" fill="none" xmlns="http://www.w3.org/2000/svg">
<path d="M27.0057 19.3563C26.9912 16.8921 28.1077 15.0349 30.3624 13.6654C29.1014 11.8588 27.1936 10.8651 24.6787 10.6736C22.2976 10.4857 19.6924 12.0611 18.7385 12.0611C17.7304 12.0611 15.4251 10.7387 13.6112 10.7387C9.86787 10.7965 5.88965 13.7232 5.88965 19.6779C5.88965 21.4376 6.21123 23.2551 6.85439 25.1268C7.71436 27.591 10.8146 33.6288 14.0484 33.5312C15.7395 33.4915 16.9354 32.3316 19.1359 32.3316C21.2714 32.3316 22.3771 33.5312 24.2632 33.5312C27.526 33.4843 30.3299 27.9957 31.1465 25.5242C26.7708 23.461 27.0057 19.4828 27.0057 19.3563ZM23.2081 8.33584C25.04 6.16064 24.8738 4.18057 24.8196 3.46875C23.2009 3.5627 21.3292 4.5708 20.2633 5.81016C19.089 7.13984 18.3988 8.78389 18.547 10.6375C20.2958 10.7712 21.8929 9.87148 23.2081 8.33584Z" fill="white"/>
</svg>
