<svg width="26" height="28" viewBox="0 0 26 28" fill="none" xmlns="http://www.w3.org/2000/svg">
<g clip-path="url(#clip0_1_66)">
<path d="M19.1763 18.2792C22.473 16.4579 24.9722 15.0701 25.1876 14.9622C25.8767 14.5935 26.5883 13.6175 25.1876 12.8595C24.7353 12.6211 22.3004 11.2765 19.1763 9.54242L14.8455 13.9432L19.1763 18.2791V18.2792Z" fill="#FFD900"/>
<path d="M14.8455 13.9431L1.05565 27.9271C1.37933 27.9702 1.74475 27.8838 2.17558 27.6455C3.08009 27.1474 12.6688 21.8786 19.1763 18.2802L14.8455 13.9431Z" fill="#F43249"/>
<path d="M14.8455 13.9431L19.1763 9.56394C19.1763 9.56394 3.14551 0.761209 2.17558 0.241574C1.81016 0.0238075 1.40066 -0.0408786 1.03423 0.0238075L14.8455 13.9431Z" fill="#00EE76"/>
<path d="M14.8455 13.9433L1.03421 0.0240173C0.473687 0.154412 0 0.652689 0 1.67173V26.2795C0 27.2122 0.366539 27.884 1.05564 27.9488L14.8455 13.9433Z" fill="#00D3FF"/>
</g>
<defs>
<clipPath id="clip0_1_66">
<rect width="26" height="28" fill="white"/>
</clipPath>
</defs>
</svg>
