<svg width="18" height="18" viewBox="0 0 18 18" fill="none" xmlns="http://www.w3.org/2000/svg">
<path d="M13.0005 9H4.99953M13.0005 9H14.1C14.3387 9 14.5676 9.0885 14.7364 9.24603C14.9052 9.40356 15 9.61722 15 9.84V15.16C15 15.2703 14.9768 15.3795 14.9315 15.4815C14.8863 15.5834 14.82 15.676 14.7364 15.754C14.6529 15.832 14.5536 15.8938 14.4444 15.9361C14.3353 15.9783 14.2182 16 14.1 16H3.90003C3.78184 16 3.66481 15.9783 3.55562 15.9361C3.44642 15.8938 3.34721 15.832 3.26363 15.754C3.18006 15.676 3.11377 15.5834 3.06854 15.4815C3.02331 15.3795 3.00003 15.2703 3.00003 15.16V9.84C3.00003 9.61722 3.09485 9.40356 3.26363 9.24603C3.43242 9.0885 3.66134 9 3.90003 9H4.99953H13.0005ZM13.0005 9V5.5C13.0005 4.3338 12.1995 2 9.00003 2C5.80053 2 4.99953 4.3338 4.99953 5.5V9H13.0005Z" stroke="white" stroke-width="1.5" stroke-linecap="round" stroke-linejoin="round"/>
</svg>
