<svg width="35" height="35" viewBox="0 0 35 35" fill="none" xmlns="http://www.w3.org/2000/svg">
<circle cx="17.5" cy="17.5" r="17.25" stroke="#D0D0D0" stroke-width="0.5"/>
<path d="M26.7471 12.497C26.1557 12.7591 25.5203 12.9362 24.8523 13.0162C25.5415 12.6038 26.0572 11.9548 26.303 11.1901C25.6555 11.5748 24.9468 11.8455 24.2077 11.9906C23.7108 11.4599 23.0525 11.1082 22.3351 10.99C21.6178 10.8718 20.8815 10.9938 20.2405 11.3369C19.5996 11.6801 19.0899 12.2253 18.7905 12.8878C18.4912 13.5503 18.4189 14.2932 18.585 15.001C17.2729 14.9351 15.9894 14.5941 14.8177 14C13.6459 13.406 12.6122 12.5722 11.7836 11.5528C11.5002 12.0416 11.3373 12.6082 11.3373 13.2117C11.337 13.755 11.4708 14.29 11.7268 14.7692C11.9828 15.2483 12.3532 15.6569 12.805 15.9586C12.281 15.942 11.7686 15.8004 11.3104 15.5457V15.5882C11.3104 16.3502 11.5739 17.0887 12.0564 17.6785C12.5389 18.2682 13.2106 18.6729 13.9574 18.8238C13.4714 18.9554 12.9618 18.9748 12.4671 18.8805C12.6778 19.5362 13.0883 20.1095 13.6411 20.5203C14.1938 20.931 14.8612 21.1586 15.5498 21.1713C14.3809 22.0888 12.9374 22.5866 11.4514 22.5844C11.1881 22.5845 10.9251 22.5691 10.6637 22.5383C12.1721 23.5082 13.9279 24.0229 15.7212 24.0209C21.7916 24.0209 25.1102 18.9931 25.1102 14.6326C25.1102 14.491 25.1066 14.3479 25.1002 14.2062C25.7457 13.7394 26.3029 13.1614 26.7457 12.4991L26.7471 12.497Z" fill="white"/>
</svg>
